<?xml version="1.0" encoding="utf-8" standalone="no"?>
<!DOCTYPE svg PUBLIC "-//W3C//DTD SVG 1.1//EN"
  "http://www.w3.org/Graphics/SVG/1.1/DTD/svg11.dtd">
<!-- Created with matplotlib (http://matplotlib.org/) -->
<svg height="360pt" version="1.1" viewBox="0 0 360 360" width="360pt" xmlns="http://www.w3.org/2000/svg" xmlns:xlink="http://www.w3.org/1999/xlink">
 <defs>
  <style type="text/css">
*{stroke-linecap:square;stroke-linejoin:round;}
  </style>
 </defs>
 <g id="figure_1">
  <g id="patch_1">
   <path d="
M0 360
L360 360
L360 0
L0 0
z
" style="fill:#ffffff;"/>
  </g>
  <g id="axes_1">
   <g id="patch_2">
    <path d="
M45 324
L324 324
L324 36
L45 36
z
" style="fill:#ffffff;"/>
   </g>
   <g id="PathCollection_1">
    <defs>
     <path d="
M0 2.23607
C0.593012 2.23607 1.16182 2.00046 1.58114 1.58114
C2.00046 1.16182 2.23607 0.593012 2.23607 0
C2.23607 -0.593012 2.00046 -1.16182 1.58114 -1.58114
C1.16182 -2.00046 0.593012 -2.23607 0 -2.23607
C-0.593012 -2.23607 -1.16182 -2.00046 -1.58114 -1.58114
C-2.00046 -1.16182 -2.23607 -0.593012 -2.23607 0
C-2.23607 0.593012 -2.00046 1.16182 -1.58114 1.58114
C-1.16182 2.00046 -0.593012 2.23607 0 2.23607
z
" id="C0_0_919e3f95db"/>
    </defs>
    <g clip-path="url(#pa3442b8bd5)">
     <use style="fill:#b2b2b2;" x="73.3937260725" xlink:href="#C0_0_919e3f95db" y="91.4587488"/>
    </g>
    <g clip-path="url(#pa3442b8bd5)">
     <use style="fill:#b2b2b2;" x="85.1841716775" xlink:href="#C0_0_919e3f95db" y="173.09355144"/>
    </g>
    <g clip-path="url(#pa3442b8bd5)">
     <use style="fill:#b2b2b2;" x="98.5986386175" xlink:href="#C0_0_919e3f95db" y="212.22179424"/>
    </g>
    <g clip-path="url(#pa3442b8bd5)">
     <use style="fill:#b2b2b2;" x="104.682852532" xlink:href="#C0_0_919e3f95db" y="222.1341768"/>
    </g>
    <g clip-path="url(#pa3442b8bd5)">
     <use style="fill:#b2b2b2;" x="132.175573447" xlink:href="#C0_0_919e3f95db" y="247.78302408"/>
    </g>
    <g clip-path="url(#pa3442b8bd5)">
     <use style="fill:#b2b2b2;" x="147.792298058" xlink:href="#C0_0_919e3f95db" y="245.20461984"/>
    </g>
    <g clip-path="url(#pa3442b8bd5)">
     <use style="fill:#b2b2b2;" x="155.350685662" xlink:href="#C0_0_919e3f95db" y="266.83599456"/>
    </g>
    <g clip-path="url(#pa3442b8bd5)">
     <use style="fill:#b2b2b2;" x="160.980709432" xlink:href="#C0_0_919e3f95db" y="264.20651808"/>
    </g>
    <g clip-path="url(#pa3442b8bd5)">
     <use style="fill:#b2b2b2;" x="174.1032603" xlink:href="#C0_0_919e3f95db" y="268.27149552"/>
    </g>
    <g clip-path="url(#pa3442b8bd5)">
     <use style="fill:#b2b2b2;" x="181.951805347" xlink:href="#C0_0_919e3f95db" y="274.69689048"/>
    </g>
    <g clip-path="url(#pa3442b8bd5)">
     <use style="fill:#b2b2b2;" x="206.611672095" xlink:href="#C0_0_919e3f95db" y="270.23909832"/>
    </g>
    <g clip-path="url(#pa3442b8bd5)">
     <use style="fill:#b2b2b2;" x="213.52701771" xlink:href="#C0_0_919e3f95db" y="279.1969848"/>
    </g>
    <g clip-path="url(#pa3442b8bd5)">
     <use style="fill:#b2b2b2;" x="210.402439515" xlink:href="#C0_0_919e3f95db" y="281.29191216"/>
    </g>
    <g clip-path="url(#pa3442b8bd5)">
     <use style="fill:#b2b2b2;" x="239.02112166" xlink:href="#C0_0_919e3f95db" y="281.48291904"/>
    </g>
    <g clip-path="url(#pa3442b8bd5)">
     <use style="fill:#b2b2b2;" x="233.174005897" xlink:href="#C0_0_919e3f95db" y="278.01135288"/>
    </g>
    <g clip-path="url(#pa3442b8bd5)">
     <use style="fill:#b2b2b2;" x="252.062953875" xlink:href="#C0_0_919e3f95db" y="275.93105544"/>
    </g>
    <g clip-path="url(#pa3442b8bd5)">
     <use style="fill:#b2b2b2;" x="259.885208288" xlink:href="#C0_0_919e3f95db" y="288.95480952"/>
    </g>
    <g clip-path="url(#pa3442b8bd5)">
     <use style="fill:#b2b2b2;" x="140.297720775" xlink:href="#C0_0_919e3f95db" y="258.19306776"/>
    </g>
    <g clip-path="url(#pa3442b8bd5)">
     <use style="fill:#b2b2b2;" x="109.6835553" xlink:href="#C0_0_919e3f95db" y="222.90686448"/>
    </g>
    <g clip-path="url(#pa3442b8bd5)">
     <use style="fill:#b2b2b2;" x="103.24385028" xlink:href="#C0_0_919e3f95db" y="227.90257128"/>
    </g>
    <g clip-path="url(#pa3442b8bd5)">
     <use style="fill:#b2b2b2;" x="92.10877335" xlink:href="#C0_0_919e3f95db" y="199.32187224"/>
    </g>
    <g clip-path="url(#pa3442b8bd5)">
     <use style="fill:#b2b2b2;" x="87.7404849975" xlink:href="#C0_0_919e3f95db" y="185.56064208"/>
    </g>
    <g clip-path="url(#pa3442b8bd5)">
     <use style="fill:#b2b2b2;" x="97.2718038975" xlink:href="#C0_0_919e3f95db" y="162.18183096"/>
    </g>
    <g clip-path="url(#pa3442b8bd5)">
     <use style="fill:#b2b2b2;" x="79.865744175" xlink:href="#C0_0_919e3f95db" y="141.36219576"/>
    </g>
    <g clip-path="url(#pa3442b8bd5)">
     <use style="fill:#b2b2b2;" x="84.3400190475" xlink:href="#C0_0_919e3f95db" y="128.62628784"/>
    </g>
    <g clip-path="url(#pa3442b8bd5)">
     <use style="fill:#b2b2b2;" x="91.4842892775" xlink:href="#C0_0_919e3f95db" y="130.59166704"/>
    </g>
    <g clip-path="url(#pa3442b8bd5)">
     <use style="fill:#b2b2b2;" x="86.37452076" xlink:href="#C0_0_919e3f95db" y="97.67297256"/>
    </g>
    <g clip-path="url(#pa3442b8bd5)">
     <use style="fill:#b2b2b2;" x="90.2983867575" xlink:href="#C0_0_919e3f95db" y="81.1364292"/>
    </g>
    <g clip-path="url(#pa3442b8bd5)">
     <use style="fill:#b2b2b2;" x="102.61221753" xlink:href="#C0_0_919e3f95db" y="160.386984"/>
    </g>
    <g clip-path="url(#pa3442b8bd5)">
     <use style="fill:#b2b2b2;" x="109.023103478" xlink:href="#C0_0_919e3f95db" y="195.48913464"/>
    </g>
    <g clip-path="url(#pa3442b8bd5)">
     <use style="fill:#b2b2b2;" x="120.157828867" xlink:href="#C0_0_919e3f95db" y="221.072376"/>
    </g>
    <g clip-path="url(#pa3442b8bd5)">
     <use style="fill:#b2b2b2;" x="132.27623781" xlink:href="#C0_0_919e3f95db" y="234.31146864"/>
    </g>
    <g clip-path="url(#pa3442b8bd5)">
     <use style="fill:#b2b2b2;" x="157.587181747" xlink:href="#C0_0_919e3f95db" y="229.29999552"/>
    </g>
    <g clip-path="url(#pa3442b8bd5)">
     <use style="fill:#b2b2b2;" x="170.419054372" xlink:href="#C0_0_919e3f95db" y="249.66318288"/>
    </g>
    <g clip-path="url(#pa3442b8bd5)">
     <use style="fill:#b2b2b2;" x="170.87204784" xlink:href="#C0_0_919e3f95db" y="249.43789224"/>
    </g>
    <g clip-path="url(#pa3442b8bd5)">
     <use style="fill:#b2b2b2;" x="186.011953777" xlink:href="#C0_0_919e3f95db" y="258.07781904"/>
    </g>
    <g clip-path="url(#pa3442b8bd5)">
     <use style="fill:#b2b2b2;" x="189.561626137" xlink:href="#C0_0_919e3f95db" y="252.8436516"/>
    </g>
    <g clip-path="url(#pa3442b8bd5)">
     <use style="fill:#b2b2b2;" x="209.068813935" xlink:href="#C0_0_919e3f95db" y="268.26305712"/>
    </g>
    <g clip-path="url(#pa3442b8bd5)">
     <use style="fill:#b2b2b2;" x="214.38589875" xlink:href="#C0_0_919e3f95db" y="264.30964944"/>
    </g>
    <g clip-path="url(#pa3442b8bd5)">
     <use style="fill:#b2b2b2;" x="226.926345645" xlink:href="#C0_0_919e3f95db" y="267.70691688"/>
    </g>
    <g clip-path="url(#pa3442b8bd5)">
     <use style="fill:#b2b2b2;" x="260.311269885" xlink:href="#C0_0_919e3f95db" y="259.32421152"/>
    </g>
    <g clip-path="url(#pa3442b8bd5)">
     <use style="fill:#b2b2b2;" x="249.918369923" xlink:href="#C0_0_919e3f95db" y="259.56510456"/>
    </g>
    <g clip-path="url(#pa3442b8bd5)">
     <use style="fill:#b2b2b2;" x="263.349874695" xlink:href="#C0_0_919e3f95db" y="269.05251312"/>
    </g>
    <g clip-path="url(#pa3442b8bd5)">
     <use style="fill:#b2b2b2;" x="269.527717058" xlink:href="#C0_0_919e3f95db" y="271.50614952"/>
    </g>
    <g clip-path="url(#pa3442b8bd5)">
     <use style="fill:#b2b2b2;" x="147.680954273" xlink:href="#C0_0_919e3f95db" y="248.26829064"/>
    </g>
    <g clip-path="url(#pa3442b8bd5)">
     <use style="fill:#b2b2b2;" x="112.058121742" xlink:href="#C0_0_919e3f95db" y="201.22489392"/>
    </g>
    <g clip-path="url(#pa3442b8bd5)">
     <use style="fill:#b2b2b2;" x="115.17628782" xlink:href="#C0_0_919e3f95db" y="211.68169296"/>
    </g>
    <g clip-path="url(#pa3442b8bd5)">
     <use style="fill:#b2b2b2;" x="108.650698928" xlink:href="#C0_0_919e3f95db" y="176.97847536"/>
    </g>
    <g clip-path="url(#pa3442b8bd5)">
     <use style="fill:#b2b2b2;" x="90.160580985" xlink:href="#C0_0_919e3f95db" y="180.88531872"/>
    </g>
    <g clip-path="url(#pa3442b8bd5)">
     <use style="fill:#b2b2b2;" x="115.020131985" xlink:href="#C0_0_919e3f95db" y="155.8599708"/>
    </g>
    <g clip-path="url(#pa3442b8bd5)">
     <use style="fill:#b2b2b2;" x="97.4397977025" xlink:href="#C0_0_919e3f95db" y="119.83183488"/>
    </g>
    <g clip-path="url(#pa3442b8bd5)">
     <use style="fill:#b2b2b2;" x="97.8210684075" xlink:href="#C0_0_919e3f95db" y="119.94254064"/>
    </g>
    <g clip-path="url(#pa3442b8bd5)">
     <use style="fill:#b2b2b2;" x="103.669125795" xlink:href="#C0_0_919e3f95db" y="112.32685872"/>
    </g>
    <g clip-path="url(#pa3442b8bd5)">
     <use style="fill:#b2b2b2;" x="98.1913307025" xlink:href="#C0_0_919e3f95db" y="83.5382844"/>
    </g>
    <g clip-path="url(#pa3442b8bd5)">
     <use style="fill:#b2b2b2;" x="112.034367915" xlink:href="#C0_0_919e3f95db" y="76.53424968"/>
    </g>
    <g clip-path="url(#pa3442b8bd5)">
     <use style="fill:#b2b2b2;" x="115.884716715" xlink:href="#C0_0_919e3f95db" y="152.09259264"/>
    </g>
    <g clip-path="url(#pa3442b8bd5)">
     <use style="fill:#b2b2b2;" x="127.17804012" xlink:href="#C0_0_919e3f95db" y="177.832086"/>
    </g>
    <g clip-path="url(#pa3442b8bd5)">
     <use style="fill:#b2b2b2;" x="129.29183247" xlink:href="#C0_0_919e3f95db" y="214.6750896"/>
    </g>
    <g clip-path="url(#pa3442b8bd5)">
     <use style="fill:#b2b2b2;" x="148.531353945" xlink:href="#C0_0_919e3f95db" y="224.2750956"/>
    </g>
    <g clip-path="url(#pa3442b8bd5)">
     <use style="fill:#b2b2b2;" x="164.42795601" xlink:href="#C0_0_919e3f95db" y="219.30260784"/>
    </g>
    <g clip-path="url(#pa3442b8bd5)">
     <use style="fill:#b2b2b2;" x="179.45718567" xlink:href="#C0_0_919e3f95db" y="227.52138336"/>
    </g>
    <g clip-path="url(#pa3442b8bd5)">
     <use style="fill:#b2b2b2;" x="188.675002965" xlink:href="#C0_0_919e3f95db" y="233.53396632"/>
    </g>
    <g clip-path="url(#pa3442b8bd5)">
     <use style="fill:#b2b2b2;" x="191.57160468" xlink:href="#C0_0_919e3f95db" y="247.10683392"/>
    </g>
    <g clip-path="url(#pa3442b8bd5)">
     <use style="fill:#b2b2b2;" x="208.048763197" xlink:href="#C0_0_919e3f95db" y="238.60627032"/>
    </g>
    <g clip-path="url(#pa3442b8bd5)">
     <use style="fill:#b2b2b2;" x="219.221001997" xlink:href="#C0_0_919e3f95db" y="260.98282872"/>
    </g>
    <g clip-path="url(#pa3442b8bd5)">
     <use style="fill:#b2b2b2;" x="224.739814507" xlink:href="#C0_0_919e3f95db" y="261.88091256"/>
    </g>
    <g clip-path="url(#pa3442b8bd5)">
     <use style="fill:#b2b2b2;" x="243.230720625" xlink:href="#C0_0_919e3f95db" y="254.58952944"/>
    </g>
    <g clip-path="url(#pa3442b8bd5)">
     <use style="fill:#b2b2b2;" x="270.97330836" xlink:href="#C0_0_919e3f95db" y="246.04441968"/>
    </g>
    <g clip-path="url(#pa3442b8bd5)">
     <use style="fill:#b2b2b2;" x="257.511519532" xlink:href="#C0_0_919e3f95db" y="248.45806704"/>
    </g>
    <g clip-path="url(#pa3442b8bd5)">
     <use style="fill:#b2b2b2;" x="275.575028107" xlink:href="#C0_0_919e3f95db" y="261.213054"/>
    </g>
    <g clip-path="url(#pa3442b8bd5)">
     <use style="fill:#b2b2b2;" x="280.19002779" xlink:href="#C0_0_919e3f95db" y="258.10677144"/>
    </g>
    <g clip-path="url(#pa3442b8bd5)">
     <use style="fill:#b2b2b2;" x="151.184247533" xlink:href="#C0_0_919e3f95db" y="230.60775552"/>
    </g>
    <g clip-path="url(#pa3442b8bd5)">
     <use style="fill:#b2b2b2;" x="113.064898357" xlink:href="#C0_0_919e3f95db" y="198.59454192"/>
    </g>
    <g clip-path="url(#pa3442b8bd5)">
     <use style="fill:#b2b2b2;" x="127.819572488" xlink:href="#C0_0_919e3f95db" y="203.63632368"/>
    </g>
    <g clip-path="url(#pa3442b8bd5)">
     <use style="fill:#b2b2b2;" x="119.743424588" xlink:href="#C0_0_919e3f95db" y="174.27108696"/>
    </g>
    <g clip-path="url(#pa3442b8bd5)">
     <use style="fill:#b2b2b2;" x="96.07817703" xlink:href="#C0_0_919e3f95db" y="176.99145504"/>
    </g>
    <g clip-path="url(#pa3442b8bd5)">
     <use style="fill:#b2b2b2;" x="120.787498852" xlink:href="#C0_0_919e3f95db" y="137.27427264"/>
    </g>
    <g clip-path="url(#pa3442b8bd5)">
     <use style="fill:#b2b2b2;" x="98.399214765" xlink:href="#C0_0_919e3f95db" y="108.73996632"/>
    </g>
    <g clip-path="url(#pa3442b8bd5)">
     <use style="fill:#b2b2b2;" x="112.732313617" xlink:href="#C0_0_919e3f95db" y="106.86039768"/>
    </g>
    <g clip-path="url(#pa3442b8bd5)">
     <use style="fill:#b2b2b2;" x="125.62862757" xlink:href="#C0_0_919e3f95db" y="101.48529672"/>
    </g>
    <g clip-path="url(#pa3442b8bd5)">
     <use style="fill:#b2b2b2;" x="113.166509925" xlink:href="#C0_0_919e3f95db" y="78.62016504"/>
    </g>
    <g clip-path="url(#pa3442b8bd5)">
     <use style="fill:#b2b2b2;" x="119.37131694" xlink:href="#C0_0_919e3f95db" y="64.55204736"/>
    </g>
    <g clip-path="url(#pa3442b8bd5)">
     <use style="fill:#b2b2b2;" x="119.403031567" xlink:href="#C0_0_919e3f95db" y="131.50682256"/>
    </g>
    <g clip-path="url(#pa3442b8bd5)">
     <use style="fill:#b2b2b2;" x="137.48526267" xlink:href="#C0_0_919e3f95db" y="171.36348168"/>
    </g>
    <g clip-path="url(#pa3442b8bd5)">
     <use style="fill:#b2b2b2;" x="144.41244393" xlink:href="#C0_0_919e3f95db" y="195.74129952"/>
    </g>
    <g clip-path="url(#pa3442b8bd5)">
     <use style="fill:#b2b2b2;" x="167.181399338" xlink:href="#C0_0_919e3f95db" y="212.6745276"/>
    </g>
    <g clip-path="url(#pa3442b8bd5)">
     <use style="fill:#b2b2b2;" x="165.859457115" xlink:href="#C0_0_919e3f95db" y="213.15123336"/>
    </g>
    <g clip-path="url(#pa3442b8bd5)">
     <use style="fill:#b2b2b2;" x="199.581640275" xlink:href="#C0_0_919e3f95db" y="212.644476"/>
    </g>
    <g clip-path="url(#pa3442b8bd5)">
     <use style="fill:#b2b2b2;" x="205.180017307" xlink:href="#C0_0_919e3f95db" y="219.79106976"/>
    </g>
    <g clip-path="url(#pa3442b8bd5)">
     <use style="fill:#b2b2b2;" x="204.346127228" xlink:href="#C0_0_919e3f95db" y="231.85002816"/>
    </g>
    <g clip-path="url(#pa3442b8bd5)">
     <use style="fill:#b2b2b2;" x="217.986127072" xlink:href="#C0_0_919e3f95db" y="218.94669864"/>
    </g>
    <g clip-path="url(#pa3442b8bd5)">
     <use style="fill:#b2b2b2;" x="229.180191578" xlink:href="#C0_0_919e3f95db" y="255.6073764"/>
    </g>
    <g clip-path="url(#pa3442b8bd5)">
     <use style="fill:#b2b2b2;" x="232.297824765" xlink:href="#C0_0_919e3f95db" y="256.62552888"/>
    </g>
    <g clip-path="url(#pa3442b8bd5)">
     <use style="fill:#b2b2b2;" x="245.893921635" xlink:href="#C0_0_919e3f95db" y="248.31487104"/>
    </g>
    <g clip-path="url(#pa3442b8bd5)">
     <use style="fill:#b2b2b2;" x="271.915504845" xlink:href="#C0_0_919e3f95db" y="233.77269576"/>
    </g>
    <g clip-path="url(#pa3442b8bd5)">
     <use style="fill:#b2b2b2;" x="274.415832398" xlink:href="#C0_0_919e3f95db" y="228.01400112"/>
    </g>
    <g clip-path="url(#pa3442b8bd5)">
     <use style="fill:#b2b2b2;" x="287.827380533" xlink:href="#C0_0_919e3f95db" y="251.60091144"/>
    </g>
    <g clip-path="url(#pa3442b8bd5)">
     <use style="fill:#b2b2b2;" x="288.291210127" xlink:href="#C0_0_919e3f95db" y="252.7017252"/>
    </g>
    <g clip-path="url(#pa3442b8bd5)">
     <use style="fill:#b2b2b2;" x="165.307462358" xlink:href="#C0_0_919e3f95db" y="219.31940352"/>
    </g>
    <g clip-path="url(#pa3442b8bd5)">
     <use style="fill:#b2b2b2;" x="121.945756192" xlink:href="#C0_0_919e3f95db" y="198.10211808"/>
    </g>
    <g clip-path="url(#pa3442b8bd5)">
     <use style="fill:#b2b2b2;" x="130.002674017" xlink:href="#C0_0_919e3f95db" y="190.07922888"/>
    </g>
    <g clip-path="url(#pa3442b8bd5)">
     <use style="fill:#b2b2b2;" x="122.432621423" xlink:href="#C0_0_919e3f95db" y="160.59706848"/>
    </g>
    <g clip-path="url(#pa3442b8bd5)">
     <use style="fill:#b2b2b2;" x="117.358067123" xlink:href="#C0_0_919e3f95db" y="176.9152008"/>
    </g>
    <g clip-path="url(#pa3442b8bd5)">
     <use style="fill:#b2b2b2;" x="140.239131008" xlink:href="#C0_0_919e3f95db" y="131.83519728"/>
    </g>
    <g clip-path="url(#pa3442b8bd5)">
     <use style="fill:#b2b2b2;" x="106.741561215" xlink:href="#C0_0_919e3f95db" y="104.67964536"/>
    </g>
    <g clip-path="url(#pa3442b8bd5)">
     <use style="fill:#b2b2b2;" x="125.389373445" xlink:href="#C0_0_919e3f95db" y="89.80724784"/>
    </g>
    <g clip-path="url(#pa3442b8bd5)">
     <use style="fill:#b2b2b2;" x="131.70093144" xlink:href="#C0_0_919e3f95db" y="84.4777044"/>
    </g>
    <g clip-path="url(#pa3442b8bd5)">
     <use style="fill:#b2b2b2;" x="128.558140358" xlink:href="#C0_0_919e3f95db" y="57.22236888"/>
    </g>
    <g clip-path="url(#pa3442b8bd5)">
     <use style="fill:#b2b2b2;" x="125.64274404" xlink:href="#C0_0_919e3f95db" y="57.85384032"/>
    </g>
    <g clip-path="url(#pa3442b8bd5)">
     <use style="fill:#b2b2b2;" x="134.66544408" xlink:href="#C0_0_919e3f95db" y="128.2022352"/>
    </g>
    <g clip-path="url(#pa3442b8bd5)">
     <use style="fill:#b2b2b2;" x="145.629364275" xlink:href="#C0_0_919e3f95db" y="165.6960336"/>
    </g>
    <g clip-path="url(#pa3442b8bd5)">
     <use style="fill:#b2b2b2;" x="162.360472545" xlink:href="#C0_0_919e3f95db" y="173.54922072"/>
    </g>
    <g clip-path="url(#pa3442b8bd5)">
     <use style="fill:#b2b2b2;" x="178.773712163" xlink:href="#C0_0_919e3f95db" y="197.87994"/>
    </g>
    <g clip-path="url(#pa3442b8bd5)">
     <use style="fill:#b2b2b2;" x="171.63119289" xlink:href="#C0_0_919e3f95db" y="199.29709872"/>
    </g>
    <g clip-path="url(#pa3442b8bd5)">
     <use style="fill:#b2b2b2;" x="206.56407516" xlink:href="#C0_0_919e3f95db" y="203.9431992"/>
    </g>
    <g clip-path="url(#pa3442b8bd5)">
     <use style="fill:#b2b2b2;" x="212.920924155" xlink:href="#C0_0_919e3f95db" y="211.27975104"/>
    </g>
    <g clip-path="url(#pa3442b8bd5)">
     <use style="fill:#b2b2b2;" x="210.551210918" xlink:href="#C0_0_919e3f95db" y="216.0068748"/>
    </g>
    <g clip-path="url(#pa3442b8bd5)">
     <use style="fill:#b2b2b2;" x="233.506534372" xlink:href="#C0_0_919e3f95db" y="211.84483728"/>
    </g>
    <g clip-path="url(#pa3442b8bd5)">
     <use style="fill:#b2b2b2;" x="234.698807857" xlink:href="#C0_0_919e3f95db" y="233.56789152"/>
    </g>
    <g clip-path="url(#pa3442b8bd5)">
     <use style="fill:#b2b2b2;" x="234.275493945" xlink:href="#C0_0_919e3f95db" y="239.3634756"/>
    </g>
    <g clip-path="url(#pa3442b8bd5)">
     <use style="fill:#b2b2b2;" x="260.523513555" xlink:href="#C0_0_919e3f95db" y="233.45947128"/>
    </g>
    <g clip-path="url(#pa3442b8bd5)">
     <use style="fill:#b2b2b2;" x="284.630626897" xlink:href="#C0_0_919e3f95db" y="222.58375848"/>
    </g>
    <g clip-path="url(#pa3442b8bd5)">
     <use style="fill:#b2b2b2;" x="290.27616609" xlink:href="#C0_0_919e3f95db" y="207.56513808"/>
    </g>
    <g clip-path="url(#pa3442b8bd5)">
     <use style="fill:#b2b2b2;" x="293.637978218" xlink:href="#C0_0_919e3f95db" y="239.26914984"/>
    </g>
    <g clip-path="url(#pa3442b8bd5)">
     <use style="fill:#b2b2b2;" x="289.791457995" xlink:href="#C0_0_919e3f95db" y="235.7319492"/>
    </g>
    <g clip-path="url(#pa3442b8bd5)">
     <use style="fill:#b2b2b2;" x="171.04602759" xlink:href="#C0_0_919e3f95db" y="218.39142312"/>
    </g>
    <g clip-path="url(#pa3442b8bd5)">
     <use style="fill:#b2b2b2;" x="137.08848003" xlink:href="#C0_0_919e3f95db" y="178.63408992"/>
    </g>
    <g clip-path="url(#pa3442b8bd5)">
     <use style="fill:#b2b2b2;" x="131.76036216" xlink:href="#C0_0_919e3f95db" y="169.12947552"/>
    </g>
    <g clip-path="url(#pa3442b8bd5)">
     <use style="fill:#b2b2b2;" x="125.372330265" xlink:href="#C0_0_919e3f95db" y="137.918094"/>
    </g>
    <g clip-path="url(#pa3442b8bd5)">
     <use style="fill:#b2b2b2;" x="127.012247625" xlink:href="#C0_0_919e3f95db" y="172.99113672"/>
    </g>
    <g clip-path="url(#pa3442b8bd5)">
     <use style="fill:#b2b2b2;" x="159.000751522" xlink:href="#C0_0_919e3f95db" y="129.732726"/>
    </g>
    <g clip-path="url(#pa3442b8bd5)">
     <use style="fill:#b2b2b2;" x="123.799125525" xlink:href="#C0_0_919e3f95db" y="91.33976448"/>
    </g>
    <g clip-path="url(#pa3442b8bd5)">
     <use style="fill:#b2b2b2;" x="134.435856142" xlink:href="#C0_0_919e3f95db" y="88.55940552"/>
    </g>
    <g clip-path="url(#pa3442b8bd5)">
     <use style="fill:#b2b2b2;" x="147.25178136" xlink:href="#C0_0_919e3f95db" y="67.70425272"/>
    </g>
    <g clip-path="url(#pa3442b8bd5)">
     <use style="fill:#b2b2b2;" x="140.420215958" xlink:href="#C0_0_919e3f95db" y="49.3808712"/>
    </g>
   </g>
   <g id="matplotlib.axis_1">
    <g id="xtick_1">
     <g id="line2d_1">
      <defs>
       <path d="
M0 0
L0 -4" id="mcb557df647" style="stroke:#000000;stroke-linecap:butt;stroke-width:0.5;"/>
      </defs>
      <g>
       <use style="stroke:#000000;stroke-linecap:butt;stroke-width:0.5;" x="45.0" xlink:href="#mcb557df647" y="324.0"/>
      </g>
     </g>
     <g id="line2d_2">
      <defs>
       <path d="
M0 0
L0 4" id="mdad270ee8e" style="stroke:#000000;stroke-linecap:butt;stroke-width:0.5;"/>
      </defs>
      <g>
       <use style="stroke:#000000;stroke-linecap:butt;stroke-width:0.5;" x="45.0" xlink:href="#mdad270ee8e" y="36.0"/>
      </g>
     </g>
     <g id="text_1">
      <!-- 0.0 -->
      <defs>
       <path d="
M31.7812 66.4062
Q24.1719 66.4062 20.3281 58.9062
Q16.5 51.4219 16.5 36.375
Q16.5 21.3906 20.3281 13.8906
Q24.1719 6.39062 31.7812 6.39062
Q39.4531 6.39062 43.2812 13.8906
Q47.125 21.3906 47.125 36.375
Q47.125 51.4219 43.2812 58.9062
Q39.4531 66.4062 31.7812 66.4062
M31.7812 74.2188
Q44.0469 74.2188 50.5156 64.5156
Q56.9844 54.8281 56.9844 36.375
Q56.9844 17.9688 50.5156 8.26562
Q44.0469 -1.42188 31.7812 -1.42188
Q19.5312 -1.42188 13.0625 8.26562
Q6.59375 17.9688 6.59375 36.375
Q6.59375 54.8281 13.0625 64.5156
Q19.5312 74.2188 31.7812 74.2188" id="BitstreamVeraSans-Roman-30"/>
       <path d="
M10.6875 12.4062
L21 12.4062
L21 0
L10.6875 0
z
" id="BitstreamVeraSans-Roman-2e"/>
      </defs>
      <g transform="translate(36.2521875 336.90625)scale(0.12 -0.12)">
       <use xlink:href="#BitstreamVeraSans-Roman-30"/>
       <use x="63.623046875" xlink:href="#BitstreamVeraSans-Roman-2e"/>
       <use x="95.41015625" xlink:href="#BitstreamVeraSans-Roman-30"/>
      </g>
     </g>
    </g>
    <g id="xtick_2">
     <g id="line2d_3">
      <g>
       <use style="stroke:#000000;stroke-linecap:butt;stroke-width:0.5;" x="91.5" xlink:href="#mcb557df647" y="324.0"/>
      </g>
     </g>
     <g id="line2d_4">
      <g>
       <use style="stroke:#000000;stroke-linecap:butt;stroke-width:0.5;" x="91.5" xlink:href="#mdad270ee8e" y="36.0"/>
      </g>
     </g>
     <g id="text_2">
      <!-- 0.2 -->
      <defs>
       <path d="
M19.1875 8.29688
L53.6094 8.29688
L53.6094 0
L7.32812 0
L7.32812 8.29688
Q12.9375 14.1094 22.625 23.8906
Q32.3281 33.6875 34.8125 36.5312
Q39.5469 41.8438 41.4219 45.5312
Q43.3125 49.2188 43.3125 52.7812
Q43.3125 58.5938 39.2344 62.25
Q35.1562 65.9219 28.6094 65.9219
Q23.9688 65.9219 18.8125 64.3125
Q13.6719 62.7031 7.8125 59.4219
L7.8125 69.3906
Q13.7656 71.7812 18.9375 73
Q24.125 74.2188 28.4219 74.2188
Q39.75 74.2188 46.4844 68.5469
Q53.2188 62.8906 53.2188 53.4219
Q53.2188 48.9219 51.5312 44.8906
Q49.8594 40.875 45.4062 35.4062
Q44.1875 33.9844 37.6406 27.2188
Q31.1094 20.4531 19.1875 8.29688" id="BitstreamVeraSans-Roman-32"/>
      </defs>
      <g transform="translate(82.9546875 336.90625)scale(0.12 -0.12)">
       <use xlink:href="#BitstreamVeraSans-Roman-30"/>
       <use x="63.623046875" xlink:href="#BitstreamVeraSans-Roman-2e"/>
       <use x="95.41015625" xlink:href="#BitstreamVeraSans-Roman-32"/>
      </g>
     </g>
    </g>
    <g id="xtick_3">
     <g id="line2d_5">
      <g>
       <use style="stroke:#000000;stroke-linecap:butt;stroke-width:0.5;" x="138.0" xlink:href="#mcb557df647" y="324.0"/>
      </g>
     </g>
     <g id="line2d_6">
      <g>
       <use style="stroke:#000000;stroke-linecap:butt;stroke-width:0.5;" x="138.0" xlink:href="#mdad270ee8e" y="36.0"/>
      </g>
     </g>
     <g id="text_3">
      <!-- 0.4 -->
      <defs>
       <path d="
M37.7969 64.3125
L12.8906 25.3906
L37.7969 25.3906
z

M35.2031 72.9062
L47.6094 72.9062
L47.6094 25.3906
L58.0156 25.3906
L58.0156 17.1875
L47.6094 17.1875
L47.6094 0
L37.7969 0
L37.7969 17.1875
L4.89062 17.1875
L4.89062 26.7031
z
" id="BitstreamVeraSans-Roman-34"/>
      </defs>
      <g transform="translate(129.1903125 336.90625)scale(0.12 -0.12)">
       <use xlink:href="#BitstreamVeraSans-Roman-30"/>
       <use x="63.623046875" xlink:href="#BitstreamVeraSans-Roman-2e"/>
       <use x="95.41015625" xlink:href="#BitstreamVeraSans-Roman-34"/>
      </g>
     </g>
    </g>
    <g id="xtick_4">
     <g id="line2d_7">
      <g>
       <use style="stroke:#000000;stroke-linecap:butt;stroke-width:0.5;" x="184.5" xlink:href="#mcb557df647" y="324.0"/>
      </g>
     </g>
     <g id="line2d_8">
      <g>
       <use style="stroke:#000000;stroke-linecap:butt;stroke-width:0.5;" x="184.5" xlink:href="#mdad270ee8e" y="36.0"/>
      </g>
     </g>
     <g id="text_4">
      <!-- 0.6 -->
      <defs>
       <path d="
M33.0156 40.375
Q26.375 40.375 22.4844 35.8281
Q18.6094 31.2969 18.6094 23.3906
Q18.6094 15.5312 22.4844 10.9531
Q26.375 6.39062 33.0156 6.39062
Q39.6562 6.39062 43.5312 10.9531
Q47.4062 15.5312 47.4062 23.3906
Q47.4062 31.2969 43.5312 35.8281
Q39.6562 40.375 33.0156 40.375
M52.5938 71.2969
L52.5938 62.3125
Q48.875 64.0625 45.0938 64.9844
Q41.3125 65.9219 37.5938 65.9219
Q27.8281 65.9219 22.6719 59.3281
Q17.5312 52.7344 16.7969 39.4062
Q19.6719 43.6562 24.0156 45.9219
Q28.375 48.1875 33.5938 48.1875
Q44.5781 48.1875 50.9531 41.5156
Q57.3281 34.8594 57.3281 23.3906
Q57.3281 12.1562 50.6875 5.35938
Q44.0469 -1.42188 33.0156 -1.42188
Q20.3594 -1.42188 13.6719 8.26562
Q6.98438 17.9688 6.98438 36.375
Q6.98438 53.6562 15.1875 63.9375
Q23.3906 74.2188 37.2031 74.2188
Q40.9219 74.2188 44.7031 73.4844
Q48.4844 72.75 52.5938 71.2969" id="BitstreamVeraSans-Roman-36"/>
      </defs>
      <g transform="translate(175.7315625 336.90625)scale(0.12 -0.12)">
       <use xlink:href="#BitstreamVeraSans-Roman-30"/>
       <use x="63.623046875" xlink:href="#BitstreamVeraSans-Roman-2e"/>
       <use x="95.41015625" xlink:href="#BitstreamVeraSans-Roman-36"/>
      </g>
     </g>
    </g>
    <g id="xtick_5">
     <g id="line2d_9">
      <g>
       <use style="stroke:#000000;stroke-linecap:butt;stroke-width:0.5;" x="231.0" xlink:href="#mcb557df647" y="324.0"/>
      </g>
     </g>
     <g id="line2d_10">
      <g>
       <use style="stroke:#000000;stroke-linecap:butt;stroke-width:0.5;" x="231.0" xlink:href="#mdad270ee8e" y="36.0"/>
      </g>
     </g>
     <g id="text_5">
      <!-- 0.8 -->
      <defs>
       <path d="
M31.7812 34.625
Q24.75 34.625 20.7188 30.8594
Q16.7031 27.0938 16.7031 20.5156
Q16.7031 13.9219 20.7188 10.1562
Q24.75 6.39062 31.7812 6.39062
Q38.8125 6.39062 42.8594 10.1719
Q46.9219 13.9688 46.9219 20.5156
Q46.9219 27.0938 42.8906 30.8594
Q38.875 34.625 31.7812 34.625
M21.9219 38.8125
Q15.5781 40.375 12.0312 44.7188
Q8.5 49.0781 8.5 55.3281
Q8.5 64.0625 14.7188 69.1406
Q20.9531 74.2188 31.7812 74.2188
Q42.6719 74.2188 48.875 69.1406
Q55.0781 64.0625 55.0781 55.3281
Q55.0781 49.0781 51.5312 44.7188
Q48 40.375 41.7031 38.8125
Q48.8281 37.1562 52.7969 32.3125
Q56.7812 27.4844 56.7812 20.5156
Q56.7812 9.90625 50.3125 4.23438
Q43.8438 -1.42188 31.7812 -1.42188
Q19.7344 -1.42188 13.25 4.23438
Q6.78125 9.90625 6.78125 20.5156
Q6.78125 27.4844 10.7812 32.3125
Q14.7969 37.1562 21.9219 38.8125
M18.3125 54.3906
Q18.3125 48.7344 21.8438 45.5625
Q25.3906 42.3906 31.7812 42.3906
Q38.1406 42.3906 41.7188 45.5625
Q45.3125 48.7344 45.3125 54.3906
Q45.3125 60.0625 41.7188 63.2344
Q38.1406 66.4062 31.7812 66.4062
Q25.3906 66.4062 21.8438 63.2344
Q18.3125 60.0625 18.3125 54.3906" id="BitstreamVeraSans-Roman-38"/>
      </defs>
      <g transform="translate(222.264375 336.90625)scale(0.12 -0.12)">
       <use xlink:href="#BitstreamVeraSans-Roman-30"/>
       <use x="63.623046875" xlink:href="#BitstreamVeraSans-Roman-2e"/>
       <use x="95.41015625" xlink:href="#BitstreamVeraSans-Roman-38"/>
      </g>
     </g>
    </g>
    <g id="xtick_6">
     <g id="line2d_11">
      <g>
       <use style="stroke:#000000;stroke-linecap:butt;stroke-width:0.5;" x="277.5" xlink:href="#mcb557df647" y="324.0"/>
      </g>
     </g>
     <g id="line2d_12">
      <g>
       <use style="stroke:#000000;stroke-linecap:butt;stroke-width:0.5;" x="277.5" xlink:href="#mdad270ee8e" y="36.0"/>
      </g>
     </g>
     <g id="text_6">
      <!-- 1.0 -->
      <defs>
       <path d="
M12.4062 8.29688
L28.5156 8.29688
L28.5156 63.9219
L10.9844 60.4062
L10.9844 69.3906
L28.4219 72.9062
L38.2812 72.9062
L38.2812 8.29688
L54.3906 8.29688
L54.3906 0
L12.4062 0
z
" id="BitstreamVeraSans-Roman-31"/>
      </defs>
      <g transform="translate(269.015625 336.90625)scale(0.12 -0.12)">
       <use xlink:href="#BitstreamVeraSans-Roman-31"/>
       <use x="63.623046875" xlink:href="#BitstreamVeraSans-Roman-2e"/>
       <use x="95.41015625" xlink:href="#BitstreamVeraSans-Roman-30"/>
      </g>
     </g>
    </g>
    <g id="text_7">
     <!-- $f_1$ -->
     <defs>
      <path d="
M9.28125 0
L9.28125 3.51562
Q21.7812 3.51562 21.7812 6.6875
L21.7812 59.1875
Q16.6094 56.6875 8.6875 56.6875
L8.6875 60.2031
Q20.9531 60.2031 27.2031 66.6094
L28.6094 66.6094
Q28.9531 66.6094 29.2656 66.3281
Q29.5938 66.0625 29.5938 65.7188
L29.5938 6.6875
Q29.5938 3.51562 42.0938 3.51562
L42.0938 0
z
" id="Cmr10-31"/>
      <path d="
M9.71875 -16.5
Q11.5781 -17.9219 14.2031 -17.9219
Q17.7812 -17.9219 20.0156 -10.0156
Q20.9531 -6.20312 25.0938 15.0938
L29.6875 39.5938
L21.0938 39.5938
Q20.125 39.5938 20.125 40.9219
Q20.5156 43.1094 21.3906 43.1094
L30.3281 43.1094
L31.5 49.6094
Q32.0781 52.6406 32.5625 54.8125
Q33.0625 56.9844 33.625 58.8281
Q34.1875 60.6875 35.2969 62.9844
Q37.0156 66.2656 39.9219 68.3906
Q42.8281 70.5156 46.1875 70.5156
Q48.3906 70.5156 50.4688 69.7031
Q52.5469 68.8906 53.8594 67.2812
Q55.1719 65.6719 55.1719 63.4844
Q55.1719 60.9375 53.4844 59.0469
Q51.8125 57.1719 49.4219 57.1719
Q47.7969 57.1719 46.6562 58.1719
Q45.5156 59.1875 45.5156 60.7969
Q45.5156 62.9844 47 64.625
Q48.4844 66.2656 50.6875 66.5
Q48.8281 67.9219 46.0938 67.9219
Q44.5781 67.9219 43.2344 66.5
Q41.8906 65.0938 41.5 63.4844
Q40.875 60.9375 38.7188 49.7031
L37.5 43.1094
L47.7969 43.1094
Q48.7812 43.1094 48.7812 41.7969
Q48.7344 41.5469 48.5781 40.9375
Q48.4375 40.3281 48.1719 39.9531
Q47.9062 39.5938 47.5156 39.5938
L36.8125 39.5938
L32.1719 15.1875
Q31.2969 9.85938 30.1406 4.35938
Q29 -1.125 26.9219 -6.90625
Q24.8594 -12.7031 21.625 -16.6094
Q18.4062 -20.5156 14.0156 -20.5156
Q10.6406 -20.5156 7.98438 -18.5781
Q5.32812 -16.6562 5.32812 -13.4844
Q5.32812 -10.9375 6.95312 -9.04688
Q8.59375 -7.17188 11.0781 -7.17188
Q12.75 -7.17188 13.8594 -8.17188
Q14.9844 -9.1875 14.9844 -10.7969
Q14.9844 -12.9375 13.3906 -14.7188
Q11.8125 -16.5 9.71875 -16.5" id="Cmmi10-66"/>
     </defs>
     <g transform="translate(178.56 353.716875)scale(0.12 -0.12)">
      <use transform="translate(0.0 26.484375)" xlink:href="#Cmmi10-66"/>
      <use transform="translate(48.876953125 0.975)scale(0.7)" xlink:href="#Cmr10-31"/>
     </g>
    </g>
   </g>
   <g id="matplotlib.axis_2">
    <g id="ytick_1">
     <g id="line2d_13">
      <defs>
       <path d="
M0 0
L4 0" id="mc8fcea1516" style="stroke:#000000;stroke-linecap:butt;stroke-width:0.5;"/>
      </defs>
      <g>
       <use style="stroke:#000000;stroke-linecap:butt;stroke-width:0.5;" x="45.0" xlink:href="#mc8fcea1516" y="324.0"/>
      </g>
     </g>
     <g id="line2d_14">
      <defs>
       <path d="
M0 0
L-4 0" id="m0d5b0a6425" style="stroke:#000000;stroke-linecap:butt;stroke-width:0.5;"/>
      </defs>
      <g>
       <use style="stroke:#000000;stroke-linecap:butt;stroke-width:0.5;" x="324.0" xlink:href="#m0d5b0a6425" y="324.0"/>
      </g>
     </g>
     <g id="text_8">
      <!-- 0.0 -->
      <g transform="translate(23.504375 328.3678125)scale(0.12 -0.12)">
       <use xlink:href="#BitstreamVeraSans-Roman-30"/>
       <use x="63.623046875" xlink:href="#BitstreamVeraSans-Roman-2e"/>
       <use x="95.41015625" xlink:href="#BitstreamVeraSans-Roman-30"/>
      </g>
     </g>
    </g>
    <g id="ytick_2">
     <g id="line2d_15">
      <g>
       <use style="stroke:#000000;stroke-linecap:butt;stroke-width:0.5;" x="45.0" xlink:href="#mc8fcea1516" y="276.0"/>
      </g>
     </g>
     <g id="line2d_16">
      <g>
       <use style="stroke:#000000;stroke-linecap:butt;stroke-width:0.5;" x="324.0" xlink:href="#m0d5b0a6425" y="276.0"/>
      </g>
     </g>
     <g id="text_9">
      <!-- 0.2 -->
      <g transform="translate(23.909375 280.3678125)scale(0.12 -0.12)">
       <use xlink:href="#BitstreamVeraSans-Roman-30"/>
       <use x="63.623046875" xlink:href="#BitstreamVeraSans-Roman-2e"/>
       <use x="95.41015625" xlink:href="#BitstreamVeraSans-Roman-32"/>
      </g>
     </g>
    </g>
    <g id="ytick_3">
     <g id="line2d_17">
      <g>
       <use style="stroke:#000000;stroke-linecap:butt;stroke-width:0.5;" x="45.0" xlink:href="#mc8fcea1516" y="228.0"/>
      </g>
     </g>
     <g id="line2d_18">
      <g>
       <use style="stroke:#000000;stroke-linecap:butt;stroke-width:0.5;" x="324.0" xlink:href="#m0d5b0a6425" y="228.0"/>
      </g>
     </g>
     <g id="text_10">
      <!-- 0.4 -->
      <g transform="translate(23.380625 232.3678125)scale(0.12 -0.12)">
       <use xlink:href="#BitstreamVeraSans-Roman-30"/>
       <use x="63.623046875" xlink:href="#BitstreamVeraSans-Roman-2e"/>
       <use x="95.41015625" xlink:href="#BitstreamVeraSans-Roman-34"/>
      </g>
     </g>
    </g>
    <g id="ytick_4">
     <g id="line2d_19">
      <g>
       <use style="stroke:#000000;stroke-linecap:butt;stroke-width:0.5;" x="45.0" xlink:href="#mc8fcea1516" y="180.0"/>
      </g>
     </g>
     <g id="line2d_20">
      <g>
       <use style="stroke:#000000;stroke-linecap:butt;stroke-width:0.5;" x="324.0" xlink:href="#m0d5b0a6425" y="180.0"/>
      </g>
     </g>
     <g id="text_11">
      <!-- 0.6 -->
      <g transform="translate(23.463125 184.3678125)scale(0.12 -0.12)">
       <use xlink:href="#BitstreamVeraSans-Roman-30"/>
       <use x="63.623046875" xlink:href="#BitstreamVeraSans-Roman-2e"/>
       <use x="95.41015625" xlink:href="#BitstreamVeraSans-Roman-36"/>
      </g>
     </g>
    </g>
    <g id="ytick_5">
     <g id="line2d_21">
      <g>
       <use style="stroke:#000000;stroke-linecap:butt;stroke-width:0.5;" x="45.0" xlink:href="#mc8fcea1516" y="132.0"/>
      </g>
     </g>
     <g id="line2d_22">
      <g>
       <use style="stroke:#000000;stroke-linecap:butt;stroke-width:0.5;" x="324.0" xlink:href="#m0d5b0a6425" y="132.0"/>
      </g>
     </g>
     <g id="text_12">
      <!-- 0.8 -->
      <g transform="translate(23.52875 136.3678125)scale(0.12 -0.12)">
       <use xlink:href="#BitstreamVeraSans-Roman-30"/>
       <use x="63.623046875" xlink:href="#BitstreamVeraSans-Roman-2e"/>
       <use x="95.41015625" xlink:href="#BitstreamVeraSans-Roman-38"/>
      </g>
     </g>
    </g>
    <g id="ytick_6">
     <g id="line2d_23">
      <g>
       <use style="stroke:#000000;stroke-linecap:butt;stroke-width:0.5;" x="45.0" xlink:href="#mc8fcea1516" y="84.0"/>
      </g>
     </g>
     <g id="line2d_24">
      <g>
       <use style="stroke:#000000;stroke-linecap:butt;stroke-width:0.5;" x="324.0" xlink:href="#m0d5b0a6425" y="84.0"/>
      </g>
     </g>
     <g id="text_13">
      <!-- 1.0 -->
      <g transform="translate(24.03125 88.3678125)scale(0.12 -0.12)">
       <use xlink:href="#BitstreamVeraSans-Roman-31"/>
       <use x="63.623046875" xlink:href="#BitstreamVeraSans-Roman-2e"/>
       <use x="95.41015625" xlink:href="#BitstreamVeraSans-Roman-30"/>
      </g>
     </g>
    </g>
    <g id="text_14">
     <!-- $f_2$ -->
     <defs>
      <path d="
M4.98438 0
L4.98438 2.6875
Q4.98438 2.9375 5.17188 3.21875
L20.7031 20.4062
Q24.2188 24.2188 26.4062 26.7969
Q28.6094 29.3906 30.75 32.7656
Q32.9062 36.1406 34.1562 39.625
Q35.4062 43.1094 35.4062 47.0156
Q35.4062 51.125 33.8906 54.8594
Q32.375 58.5938 29.375 60.8438
Q26.375 63.0938 22.125 63.0938
Q17.7812 63.0938 14.3125 60.4688
Q10.8438 57.8594 9.42188 53.7188
Q9.8125 53.8125 10.5 53.8125
Q12.75 53.8125 14.3281 52.2969
Q15.9219 50.7812 15.9219 48.3906
Q15.9219 46.0938 14.3281 44.5
Q12.75 42.9219 10.5 42.9219
Q8.15625 42.9219 6.5625 44.5469
Q4.98438 46.1875 4.98438 48.3906
Q4.98438 52.1562 6.39062 55.4375
Q7.8125 58.7344 10.4688 61.2969
Q13.1406 63.875 16.4844 65.2344
Q19.8281 66.6094 23.5781 66.6094
Q29.2969 66.6094 34.2188 64.1875
Q39.1562 61.7656 42.0312 57.3438
Q44.9219 52.9375 44.9219 47.0156
Q44.9219 42.6719 43.0156 38.7656
Q41.1094 34.8594 38.125 31.6562
Q35.1562 28.4688 30.5156 24.4062
Q25.875 20.3594 24.4219 19
L13.0938 8.10938
L22.7031 8.10938
Q29.7812 8.10938 34.5469 8.21875
Q39.3125 8.34375 39.5938 8.59375
Q40.7656 9.85938 42 17.8281
L44.9219 17.8281
L42.0938 0
z
" id="Cmr10-32"/>
     </defs>
     <g transform="translate(18.380625 185.94)rotate(-90.0)scale(0.12 -0.12)">
      <use transform="translate(0.0 26.484375)" xlink:href="#Cmmi10-66"/>
      <use transform="translate(48.876953125 0.975)scale(0.7)" xlink:href="#Cmr10-32"/>
     </g>
    </g>
   </g>
   <g id="patch_3">
    <path d="
M45 36
L324 36" style="fill:none;stroke:#000000;"/>
   </g>
   <g id="patch_4">
    <path d="
M324 324
L324 36" style="fill:none;stroke:#000000;"/>
   </g>
   <g id="patch_5">
    <path d="
M45 324
L324 324" style="fill:none;stroke:#000000;"/>
   </g>
   <g id="patch_6">
    <path d="
M45 324
L45 36" style="fill:none;stroke:#000000;"/>
   </g>
   <g id="text_15">
    <!-- Unsorted Data -->
    <defs>
     <path id="BitstreamVeraSans-Roman-20"/>
     <path d="
M54.8906 33.0156
L54.8906 0
L45.9062 0
L45.9062 32.7188
Q45.9062 40.4844 42.875 44.3281
Q39.8438 48.1875 33.7969 48.1875
Q26.5156 48.1875 22.3125 43.5469
Q18.1094 38.9219 18.1094 30.9062
L18.1094 0
L9.07812 0
L9.07812 54.6875
L18.1094 54.6875
L18.1094 46.1875
Q21.3438 51.125 25.7031 53.5625
Q30.0781 56 35.7969 56
Q45.2188 56 50.0469 50.1719
Q54.8906 44.3438 54.8906 33.0156" id="BitstreamVeraSans-Roman-6e"/>
     <path d="
M34.2812 27.4844
Q23.3906 27.4844 19.1875 25
Q14.9844 22.5156 14.9844 16.5
Q14.9844 11.7188 18.1406 8.90625
Q21.2969 6.10938 26.7031 6.10938
Q34.1875 6.10938 38.7031 11.4062
Q43.2188 16.7031 43.2188 25.4844
L43.2188 27.4844
z

M52.2031 31.2031
L52.2031 0
L43.2188 0
L43.2188 8.29688
Q40.1406 3.32812 35.5469 0.953125
Q30.9531 -1.42188 24.3125 -1.42188
Q15.9219 -1.42188 10.9531 3.29688
Q6 8.01562 6 15.9219
Q6 25.1406 12.1719 29.8281
Q18.3594 34.5156 30.6094 34.5156
L43.2188 34.5156
L43.2188 35.4062
Q43.2188 41.6094 39.1406 45
Q35.0625 48.3906 27.6875 48.3906
Q23 48.3906 18.5469 47.2656
Q14.1094 46.1406 10.0156 43.8906
L10.0156 52.2031
Q14.9375 54.1094 19.5781 55.0469
Q24.2188 56 28.6094 56
Q40.4844 56 46.3438 49.8438
Q52.2031 43.7031 52.2031 31.2031" id="BitstreamVeraSans-Roman-61"/>
     <path d="
M30.6094 48.3906
Q23.3906 48.3906 19.1875 42.75
Q14.9844 37.1094 14.9844 27.2969
Q14.9844 17.4844 19.1562 11.8438
Q23.3438 6.20312 30.6094 6.20312
Q37.7969 6.20312 41.9844 11.8594
Q46.1875 17.5312 46.1875 27.2969
Q46.1875 37.0156 41.9844 42.7031
Q37.7969 48.3906 30.6094 48.3906
M30.6094 56
Q42.3281 56 49.0156 48.375
Q55.7188 40.7656 55.7188 27.2969
Q55.7188 13.875 49.0156 6.21875
Q42.3281 -1.42188 30.6094 -1.42188
Q18.8438 -1.42188 12.1719 6.21875
Q5.51562 13.875 5.51562 27.2969
Q5.51562 40.7656 12.1719 48.375
Q18.8438 56 30.6094 56" id="BitstreamVeraSans-Roman-6f"/>
     <path d="
M19.6719 64.7969
L19.6719 8.10938
L31.5938 8.10938
Q46.6875 8.10938 53.6875 14.9375
Q60.6875 21.7812 60.6875 36.5312
Q60.6875 51.1719 53.6875 57.9844
Q46.6875 64.7969 31.5938 64.7969
z

M9.8125 72.9062
L30.0781 72.9062
Q51.2656 72.9062 61.1719 64.0938
Q71.0938 55.2812 71.0938 36.5312
Q71.0938 17.6719 61.125 8.82812
Q51.1719 0 30.0781 0
L9.8125 0
z
" id="BitstreamVeraSans-Roman-44"/>
     <path d="
M8.6875 72.9062
L18.6094 72.9062
L18.6094 28.6094
Q18.6094 16.8906 22.8438 11.7344
Q27.0938 6.59375 36.625 6.59375
Q46.0938 6.59375 50.3438 11.7344
Q54.5938 16.8906 54.5938 28.6094
L54.5938 72.9062
L64.5 72.9062
L64.5 27.3906
Q64.5 13.1406 57.4375 5.85938
Q50.3906 -1.42188 36.625 -1.42188
Q22.7969 -1.42188 15.7344 5.85938
Q8.6875 13.1406 8.6875 27.3906
z
" id="BitstreamVeraSans-Roman-55"/>
     <path d="
M56.2031 29.5938
L56.2031 25.2031
L14.8906 25.2031
Q15.4844 15.9219 20.4844 11.0625
Q25.4844 6.20312 34.4219 6.20312
Q39.5938 6.20312 44.4531 7.46875
Q49.3125 8.73438 54.1094 11.2812
L54.1094 2.78125
Q49.2656 0.734375 44.1875 -0.34375
Q39.1094 -1.42188 33.8906 -1.42188
Q20.7969 -1.42188 13.1562 6.1875
Q5.51562 13.8125 5.51562 26.8125
Q5.51562 40.2344 12.7656 48.1094
Q20.0156 56 32.3281 56
Q43.3594 56 49.7812 48.8906
Q56.2031 41.7969 56.2031 29.5938
M47.2188 32.2344
Q47.125 39.5938 43.0938 43.9844
Q39.0625 48.3906 32.4219 48.3906
Q24.9062 48.3906 20.3906 44.1406
Q15.875 39.8906 15.1875 32.1719
z
" id="BitstreamVeraSans-Roman-65"/>
     <path d="
M45.4062 46.3906
L45.4062 75.9844
L54.3906 75.9844
L54.3906 0
L45.4062 0
L45.4062 8.20312
Q42.5781 3.32812 38.25 0.953125
Q33.9375 -1.42188 27.875 -1.42188
Q17.9688 -1.42188 11.7344 6.48438
Q5.51562 14.4062 5.51562 27.2969
Q5.51562 40.1875 11.7344 48.0938
Q17.9688 56 27.875 56
Q33.9375 56 38.25 53.625
Q42.5781 51.2656 45.4062 46.3906
M14.7969 27.2969
Q14.7969 17.3906 18.875 11.75
Q22.9531 6.10938 30.0781 6.10938
Q37.2031 6.10938 41.2969 11.75
Q45.4062 17.3906 45.4062 27.2969
Q45.4062 37.2031 41.2969 42.8438
Q37.2031 48.4844 30.0781 48.4844
Q22.9531 48.4844 18.875 42.8438
Q14.7969 37.2031 14.7969 27.2969" id="BitstreamVeraSans-Roman-64"/>
     <path d="
M18.3125 70.2188
L18.3125 54.6875
L36.8125 54.6875
L36.8125 47.7031
L18.3125 47.7031
L18.3125 18.0156
Q18.3125 11.3281 20.1406 9.42188
Q21.9688 7.51562 27.5938 7.51562
L36.8125 7.51562
L36.8125 0
L27.5938 0
Q17.1875 0 13.2344 3.875
Q9.28125 7.76562 9.28125 18.0156
L9.28125 47.7031
L2.6875 47.7031
L2.6875 54.6875
L9.28125 54.6875
L9.28125 70.2188
z
" id="BitstreamVeraSans-Roman-74"/>
     <path d="
M41.1094 46.2969
Q39.5938 47.1719 37.8125 47.5781
Q36.0312 48 33.8906 48
Q26.2656 48 22.1875 43.0469
Q18.1094 38.0938 18.1094 28.8125
L18.1094 0
L9.07812 0
L9.07812 54.6875
L18.1094 54.6875
L18.1094 46.1875
Q20.9531 51.1719 25.4844 53.5781
Q30.0312 56 36.5312 56
Q37.4531 56 38.5781 55.875
Q39.7031 55.7656 41.0625 55.5156
z
" id="BitstreamVeraSans-Roman-72"/>
     <path d="
M44.2812 53.0781
L44.2812 44.5781
Q40.4844 46.5312 36.375 47.5
Q32.2812 48.4844 27.875 48.4844
Q21.1875 48.4844 17.8438 46.4375
Q14.5 44.3906 14.5 40.2812
Q14.5 37.1562 16.8906 35.375
Q19.2812 33.5938 26.5156 31.9844
L29.5938 31.2969
Q39.1562 29.25 43.1875 25.5156
Q47.2188 21.7812 47.2188 15.0938
Q47.2188 7.46875 41.1875 3.01562
Q35.1562 -1.42188 24.6094 -1.42188
Q20.2188 -1.42188 15.4531 -0.5625
Q10.6875 0.296875 5.42188 2
L5.42188 11.2812
Q10.4062 8.6875 15.2344 7.39062
Q20.0625 6.10938 24.8125 6.10938
Q31.1562 6.10938 34.5625 8.28125
Q37.9844 10.4531 37.9844 14.4062
Q37.9844 18.0625 35.5156 20.0156
Q33.0625 21.9688 24.7031 23.7812
L21.5781 24.5156
Q13.2344 26.2656 9.51562 29.9062
Q5.8125 33.5469 5.8125 39.8906
Q5.8125 47.6094 11.2812 51.7969
Q16.75 56 26.8125 56
Q31.7812 56 36.1719 55.2656
Q40.5781 54.5469 44.2812 53.0781" id="BitstreamVeraSans-Roman-73"/>
    </defs>
    <g transform="translate(132.901875 31.0)scale(0.144 -0.144)">
     <use xlink:href="#BitstreamVeraSans-Roman-55"/>
     <use x="73.193359375" xlink:href="#BitstreamVeraSans-Roman-6e"/>
     <use x="136.572265625" xlink:href="#BitstreamVeraSans-Roman-73"/>
     <use x="188.671875" xlink:href="#BitstreamVeraSans-Roman-6f"/>
     <use x="249.853515625" xlink:href="#BitstreamVeraSans-Roman-72"/>
     <use x="290.966796875" xlink:href="#BitstreamVeraSans-Roman-74"/>
     <use x="330.17578125" xlink:href="#BitstreamVeraSans-Roman-65"/>
     <use x="391.69921875" xlink:href="#BitstreamVeraSans-Roman-64"/>
     <use x="455.17578125" xlink:href="#BitstreamVeraSans-Roman-20"/>
     <use x="486.962890625" xlink:href="#BitstreamVeraSans-Roman-44"/>
     <use x="563.96484375" xlink:href="#BitstreamVeraSans-Roman-61"/>
     <use x="625.244140625" xlink:href="#BitstreamVeraSans-Roman-74"/>
     <use x="664.453125" xlink:href="#BitstreamVeraSans-Roman-61"/>
    </g>
   </g>
  </g>
 </g>
 <defs>
  <clipPath id="pa3442b8bd5">
   <rect height="288.0" width="279.0" x="45.0" y="36.0"/>
  </clipPath>
 </defs>
</svg>
